<svg width="15" height="15" viewBox="0 0 15 15" fill="none" xmlns="http://www.w3.org/2000/svg">
<path d="M12.125 7.20002H2.675C2.49598 7.20002 2.32429 7.26323 2.1977 7.37576C2.07112 7.48828 2 7.64089 2 7.80002C2 7.95915 2.07112 8.11176 2.1977 8.22428C2.32429 8.33681 2.49598 8.40002 2.675 8.40002H12.125C12.304 8.40002 12.4757 8.33681 12.6023 8.22428C12.7289 8.11176 12.8 7.95915 12.8 7.80002C12.8 7.64089 12.7289 7.48828 12.6023 7.37576C12.4757 7.26323 12.304 7.20002 12.125 7.20002Z" fill="black"/>
<path d="M12.125 10.2H2.675C2.49598 10.2 2.32429 10.2632 2.1977 10.3758C2.07112 10.4883 2 10.6409 2 10.8C2 10.9591 2.07112 11.1118 2.1977 11.2243C2.32429 11.3368 2.49598 11.4 2.675 11.4H12.125C12.304 11.4 12.4757 11.3368 12.6023 11.2243C12.7289 11.1118 12.8 10.9591 12.8 10.8C12.8 10.6409 12.7289 10.4883 12.6023 10.3758C12.4757 10.2632 12.304 10.2 12.125 10.2Z" fill="black"/>
<path d="M12.125 4.20002H2.675C2.49598 4.20002 2.32429 4.26323 2.1977 4.37576C2.07112 4.48828 2 4.64089 2 4.80002C2 4.95915 2.07112 5.11176 2.1977 5.22428C2.32429 5.33681 2.49598 5.40002 2.675 5.40002H12.125C12.304 5.40002 12.4757 5.33681 12.6023 5.22428C12.7289 5.11176 12.8 4.95915 12.8 4.80002C12.8 4.64089 12.7289 4.48828 12.6023 4.37576C12.4757 4.26323 12.304 4.20002 12.125 4.20002Z" fill="black"/>
</svg>
